<mxfile host="Electron" agent="Mozilla/5.0 (Windows NT 10.0; Win64; x64) AppleWebKit/537.36 (KHTML, like Gecko) draw.io/26.0.15 Chrome/132.0.6834.196 Electron/34.2.0 Safari/537.36" version="26.0.15">
  <diagram name="Page-1" id="RKrA7PSTAmT7aY2OQsnB">
    <mxGraphModel dx="546" dy="824" grid="1" gridSize="10" guides="1" tooltips="1" connect="1" arrows="1" fold="1" page="1" pageScale="1" pageWidth="850" pageHeight="1100" math="0" shadow="0">
      <root>
        <mxCell id="0" />
        <mxCell id="1" parent="0" />
        <mxCell id="Wq9Rnoc6OL9BCJMxgdQx-1" value="Registered User" style="shape=umlLifeline;perimeter=lifelinePerimeter;whiteSpace=wrap;html=1;container=1;dropTarget=0;collapsible=0;recursiveResize=0;outlineConnect=0;portConstraint=eastwest;newEdgeStyle={&quot;edgeStyle&quot;:&quot;elbowEdgeStyle&quot;,&quot;elbow&quot;:&quot;vertical&quot;,&quot;curved&quot;:0,&quot;rounded&quot;:0};" vertex="1" parent="1">
          <mxGeometry x="170" y="130" width="100" height="200" as="geometry" />
        </mxCell>
        <mxCell id="Wq9Rnoc6OL9BCJMxgdQx-2" value="Saved_Responses&lt;br&gt;Page" style="shape=umlLifeline;perimeter=lifelinePerimeter;whiteSpace=wrap;html=1;container=1;dropTarget=0;collapsible=0;recursiveResize=0;outlineConnect=0;portConstraint=eastwest;newEdgeStyle={&quot;edgeStyle&quot;:&quot;elbowEdgeStyle&quot;,&quot;elbow&quot;:&quot;vertical&quot;,&quot;curved&quot;:0,&quot;rounded&quot;:0};" vertex="1" parent="1">
          <mxGeometry x="375" y="130" width="100" height="200" as="geometry" />
        </mxCell>
        <mxCell id="Wq9Rnoc6OL9BCJMxgdQx-4" value="" style="html=1;points=[[0,0,0,0,5],[0,1,0,0,-5],[1,0,0,0,5],[1,1,0,0,-5]];perimeter=orthogonalPerimeter;outlineConnect=0;targetShapes=umlLifeline;portConstraint=eastwest;newEdgeStyle={&quot;curved&quot;:0,&quot;rounded&quot;:0};" vertex="1" parent="Wq9Rnoc6OL9BCJMxgdQx-2">
          <mxGeometry x="45" y="70" width="10" height="70" as="geometry" />
        </mxCell>
        <mxCell id="Wq9Rnoc6OL9BCJMxgdQx-6" value="Database" style="shape=umlLifeline;perimeter=lifelinePerimeter;whiteSpace=wrap;html=1;container=1;dropTarget=0;collapsible=0;recursiveResize=0;outlineConnect=0;portConstraint=eastwest;newEdgeStyle={&quot;edgeStyle&quot;:&quot;elbowEdgeStyle&quot;,&quot;elbow&quot;:&quot;vertical&quot;,&quot;curved&quot;:0,&quot;rounded&quot;:0};" vertex="1" parent="1">
          <mxGeometry x="560" y="130" width="100" height="200" as="geometry" />
        </mxCell>
        <mxCell id="Wq9Rnoc6OL9BCJMxgdQx-7" value="" style="html=1;points=[[0,0,0,0,5],[0,1,0,0,-5],[1,0,0,0,5],[1,1,0,0,-5]];perimeter=orthogonalPerimeter;outlineConnect=0;targetShapes=umlLifeline;portConstraint=eastwest;newEdgeStyle={&quot;curved&quot;:0,&quot;rounded&quot;:0};" vertex="1" parent="Wq9Rnoc6OL9BCJMxgdQx-6">
          <mxGeometry x="45" y="80" width="10" height="40" as="geometry" />
        </mxCell>
        <mxCell id="Wq9Rnoc6OL9BCJMxgdQx-12" value="1. Enters page" style="edgeStyle=elbowEdgeStyle;rounded=0;orthogonalLoop=1;jettySize=auto;html=1;elbow=vertical;curved=0;entryX=0;entryY=0;entryDx=0;entryDy=5;entryPerimeter=0;" edge="1" parent="1">
          <mxGeometry relative="1" as="geometry">
            <mxPoint x="219.75" y="210" as="sourcePoint" />
            <mxPoint x="420.25" y="210" as="targetPoint" />
          </mxGeometry>
        </mxCell>
        <mxCell id="Wq9Rnoc6OL9BCJMxgdQx-13" value="4.Display Page with Previous Entries" style="edgeStyle=orthogonalEdgeStyle;rounded=0;orthogonalLoop=1;jettySize=auto;html=1;curved=0;exitX=0;exitY=1;exitDx=0;exitDy=-5;exitPerimeter=0;" edge="1" parent="1" source="Wq9Rnoc6OL9BCJMxgdQx-4">
          <mxGeometry relative="1" as="geometry">
            <mxPoint x="220" y="264" as="targetPoint" />
            <mxPoint x="419.5" y="261" as="sourcePoint" />
          </mxGeometry>
        </mxCell>
        <mxCell id="Wq9Rnoc6OL9BCJMxgdQx-14" value="2. Get Previous Entries" style="edgeStyle=elbowEdgeStyle;rounded=0;orthogonalLoop=1;jettySize=auto;html=1;elbow=vertical;curved=0;" edge="1" parent="1">
          <mxGeometry relative="1" as="geometry">
            <mxPoint x="433" y="221" as="sourcePoint" />
            <mxPoint x="604" y="220" as="targetPoint" />
          </mxGeometry>
        </mxCell>
        <mxCell id="Wq9Rnoc6OL9BCJMxgdQx-15" value="3. Return Results" style="edgeStyle=orthogonalEdgeStyle;rounded=0;orthogonalLoop=1;jettySize=auto;html=1;curved=0;exitX=0;exitY=1;exitDx=0;exitDy=-5;exitPerimeter=0;" edge="1" parent="1" source="Wq9Rnoc6OL9BCJMxgdQx-7">
          <mxGeometry x="-0.0028" relative="1" as="geometry">
            <mxPoint x="431" y="246" as="targetPoint" />
            <Array as="points" />
            <mxPoint x="1" as="offset" />
          </mxGeometry>
        </mxCell>
      </root>
    </mxGraphModel>
  </diagram>
</mxfile>
